<svg width="178" height="28" viewBox="0 0 178 28" fill="none" xmlns="http://www.w3.org/2000/svg">
<path d="M173.131 22.7709C172.124 22.7709 171.318 22.5459 170.513 22.096C169.808 21.6461 169.203 20.9713 168.801 20.2964C168.398 19.3966 168.196 18.4969 168.196 17.3721C168.196 16.2474 168.398 15.3476 168.801 14.5603C169.203 13.6605 169.808 13.0981 170.513 12.6482C171.318 12.1983 172.225 11.9734 173.232 11.9734C174.239 11.9734 175.044 12.1983 175.749 12.6482C176.555 12.9856 177.058 13.6605 177.461 14.4478C177.907 15.4582 178.082 16.5908 177.965 17.7095V18.047H169.707V16.2474H175.749L174.944 17.3721L175.145 16.9222V16.4723C175.145 16.0224 175.145 15.5725 174.944 15.2351C174.742 14.7852 174.541 14.5603 174.239 14.3353C173.936 14.1253 173.588 14.0088 173.232 13.9979C172.627 13.9979 172.225 14.1104 171.822 14.4478C171.488 14.7315 171.241 15.1247 171.117 15.5725C170.915 16.0224 170.815 16.6973 170.815 17.2596C170.815 18.047 170.815 18.6093 171.016 19.0592C171.19 19.5412 171.501 19.9457 171.902 20.21C172.302 20.4743 172.77 20.5838 173.232 20.5214C173.735 20.5214 174.239 20.5214 174.641 20.184C175.044 19.959 175.447 19.5091 175.649 19.0592L177.965 19.8465C177.461 20.8588 176.857 21.5336 175.951 22.096C175.246 22.5459 174.339 22.7709 173.131 22.7709ZM163.564 16.2474C163.564 15.5725 163.463 15.1226 163.161 14.6727C162.96 14.3353 162.557 14.1104 162.053 14.1104C161.651 14.1104 161.349 14.2229 161.046 14.4478C160.744 14.5603 160.543 14.7852 160.442 15.1226C160.241 15.4601 160.14 15.7975 160.14 16.2474V22.5459H157.522V12.1983H160.14V13.773C160.408 13.2043 160.816 12.7328 161.315 12.414C161.815 12.0952 162.385 11.9423 162.96 11.9734C164.068 11.9734 164.974 12.3108 165.477 13.0981C165.981 13.773 166.283 14.6727 166.283 15.91V22.6584H163.564V16.2474ZM143.725 14.6727C143.725 15.685 143.927 16.5848 144.229 17.3721C144.632 18.1594 145.236 18.7218 145.84 19.1717C146.444 19.6216 147.25 19.8465 148.156 19.8465C148.941 19.8958 149.721 19.6879 150.401 19.2482C151.081 18.8086 151.631 18.1564 151.983 17.3721C152.349 16.5329 152.522 15.6053 152.487 14.6727C152.522 13.7402 152.349 12.8126 151.983 11.9734C151.631 11.1891 151.081 10.5369 150.401 10.0973C149.721 9.65764 148.941 9.44966 148.156 9.49895C147.149 9.49895 146.444 9.7239 145.84 10.1738C145.135 10.6237 144.632 11.2985 144.229 11.9734C143.863 12.8126 143.69 13.7402 143.725 14.6727ZM140.704 14.6727C140.668 12.5046 141.39 10.4062 142.718 8.82411C144.187 7.36315 146.089 6.56176 148.056 6.57463C149.163 6.57463 150.17 6.68711 151.077 7.137C151.96 7.50874 152.764 8.08028 153.44 8.81577C154.116 9.55126 154.649 10.4348 155.004 11.411C155.407 12.4233 155.608 13.4355 155.608 14.7852C155.597 16.9646 154.84 19.0567 153.494 20.6339C152.809 21.4146 151.985 22.0275 151.077 22.4334C150.17 22.7709 149.163 22.9958 148.056 22.9958C147.049 22.9958 146.041 22.7709 145.034 22.4334C144.163 22.0014 143.377 21.3816 142.72 20.6096C142.063 19.8376 141.549 18.9286 141.208 17.9345C140.805 16.9222 140.704 15.91 140.704 14.6727ZM134.158 12.1983H139.697V14.6727H134.058V12.1983H134.158ZM135.669 8.59916H138.187V22.5459H135.669V8.59916ZM123.081 17.3721C123.081 16.2474 123.282 15.3476 123.786 14.5603C124.189 13.773 124.793 13.0981 125.599 12.6482C126.404 12.1983 127.21 11.9734 128.217 11.9734C129.224 11.9734 130.03 12.1983 130.835 12.6482C131.618 13.081 132.272 13.7571 132.718 14.5951C133.165 15.4332 133.385 16.3975 133.353 17.3721C133.353 18.4969 133.151 19.3966 132.648 20.184C132.245 21.0838 131.641 21.6461 130.835 22.096C130.03 22.5459 129.224 22.7709 128.217 22.7709C127.21 22.7709 126.404 22.5459 125.599 22.096C124.793 21.6461 124.189 20.9713 123.786 20.184C123.282 19.3966 123.081 18.4969 123.081 17.3721ZM125.699 17.3721C125.699 17.9345 125.8 18.4969 126.102 18.9467C126.303 19.3966 126.606 19.7341 127.008 20.0715L128.217 20.2964C128.72 20.2964 129.123 20.2964 129.425 19.959C129.828 19.7341 130.13 19.3966 130.432 18.8343C130.533 18.4969 130.734 17.9345 130.734 17.3721C130.734 16.8097 130.533 16.2474 130.332 15.7975C130.13 15.3476 129.828 15.0102 129.425 14.7852C129.123 14.5603 128.72 14.4478 128.217 14.4478C127.462 14.4478 127.311 14.5603 127.008 14.7852C126.606 15.0102 126.303 15.3476 126.001 15.91C125.8 16.2474 125.699 16.8097 125.699 17.3721ZM115.125 5V22.5459H112.507V5H115.125ZM118.549 16.2474C118.549 15.5725 118.348 15.1226 118.146 14.6727C117.945 14.3353 117.542 14.1104 116.938 14.1104L115.931 14.4478L115.327 15.1226L115.125 16.2474H114.622C114.622 15.4601 114.722 14.6727 115.025 13.9979C115.226 13.3231 115.629 12.8732 116.032 12.4233C116.622 11.976 117.336 11.7767 118.046 11.8609C118.65 11.8609 119.254 11.9734 119.758 12.3108C120.261 12.6482 120.563 13.0981 120.765 13.6605C121.067 14.2229 121.168 15.0102 121.168 15.91V22.6584H118.549V16.2474ZM104.149 18.9467L105.156 20.0715L106.163 20.5214L107.069 20.6339C107.371 20.6339 107.673 20.6339 107.875 20.4089C108.076 20.2964 108.177 20.0715 108.177 19.7341C108.177 19.2279 108.076 19.2842 107.875 19.0592L107.27 18.4969L106.062 18.047L104.853 17.4846L103.846 16.3599C103.544 16.0224 103.444 15.4601 103.444 14.7852C103.444 14.2229 103.645 13.6605 103.947 13.3231C104.149 12.8732 104.551 12.5357 105.055 12.3108C105.785 12.0345 106.561 11.9416 107.327 12.0389C108.093 12.1361 108.83 12.4209 109.486 12.8732C109.889 13.2106 110.292 13.4355 110.493 13.773L109.486 15.5725C109.114 15.1412 108.669 14.797 108.177 14.5603C107.769 14.3395 107.321 14.2241 106.868 14.2229C106.565 14.2229 106.263 14.2229 106.163 14.4478C105.961 14.4478 105.861 14.6727 105.861 15.0102C105.861 15.2351 105.961 15.3476 106.163 15.5725C106.263 15.7975 106.565 15.91 106.868 16.0224C107.691 16.3483 108.498 16.7238 109.284 17.1472C109.788 17.4846 110.09 17.822 110.292 18.2719C110.594 18.6093 110.694 19.1717 110.694 19.7341C110.694 20.8588 110.392 21.6461 109.788 22.2085C109.184 22.7709 108.378 22.9958 107.371 22.9958C106.531 23.0289 105.694 22.8659 104.914 22.5173C104.134 22.1687 103.427 21.6422 102.839 20.9713L104.149 19.0592V18.9467ZM98.4084 16.2474C98.4084 15.5725 98.3077 15.1226 98.0056 14.6727C97.8042 14.3353 97.4014 14.1104 96.8979 14.1104C96.495 14.1104 96.1929 14.2229 95.8908 14.4478C95.5887 14.5603 95.3873 14.7852 95.2866 15.1226C95.0852 15.4601 95.0852 15.7975 95.0852 16.2474V22.5459H92.3662V12.1983H94.9845V13.773C95.2447 13.2219 95.6366 12.762 96.1165 12.4444C96.5964 12.1267 97.1457 11.9637 97.7035 11.9734C98.8112 11.9734 99.7176 12.3108 100.221 13.0981C100.725 13.773 101.027 14.6727 101.027 15.91V22.6584H98.4084V16.2474ZM85.619 22.7709C84.6119 22.7709 83.7056 22.5459 83.0007 22.096C82.195 21.6461 81.6915 20.9713 81.2887 20.2964C80.8859 19.3966 80.6845 18.4969 80.6845 17.3721C80.6845 16.2474 80.8859 15.3476 81.2887 14.5603C81.6915 13.6605 82.2958 13.0981 83.0007 12.6482C83.7056 12.1983 84.6119 11.9734 85.619 11.9734C86.626 11.9734 87.5324 12.1983 88.2373 12.6482C88.9422 12.9856 89.5464 13.6605 89.9493 14.4478C90.3894 15.4602 90.564 16.591 90.4528 17.7095V18.047H82.0943V16.2474H88.1366L87.4317 17.3721L87.6331 16.9222V16.4723C87.6331 16.0224 87.6331 15.5725 87.4317 15.2351C87.2303 14.7852 87.0288 14.5603 86.7267 14.3353C86.3946 14.1052 86.0097 13.988 85.619 13.9979C85.1155 13.9979 84.6119 14.1104 84.3098 14.4478C83.9382 14.714 83.6551 15.1091 83.5042 15.5725L83.3028 17.2596C83.3028 18.047 83.3028 18.6093 83.5042 19.0592C83.6732 19.5212 83.9689 19.9116 84.3488 20.1742C84.7287 20.4369 85.1734 20.5584 85.619 20.5214C86.2232 20.5214 86.626 20.5214 87.1296 20.184C87.5324 19.959 87.8345 19.5091 88.1366 19.0592L90.4528 19.8465C89.9493 20.8588 89.345 21.5336 88.4387 22.096C87.7338 22.5459 86.7267 22.7709 85.619 22.7709ZM74.4408 22.7709C73.4338 22.7709 72.5274 22.5459 71.8225 22.096C71.1176 21.6461 70.5134 20.9713 70.1105 20.2964C69.7077 19.3966 69.5063 18.4969 69.5063 17.3721C69.5063 16.2474 69.7077 15.3476 70.1105 14.5603C70.5134 13.6605 71.1176 13.0981 71.8225 12.6482C72.5274 12.1983 73.4338 11.9734 74.4408 11.9734C75.4479 11.9734 76.4549 12.1983 77.0591 12.6482C77.7641 12.9856 78.3683 13.6605 78.7711 14.4478C79.2113 15.4602 79.3858 16.591 79.2746 17.7095V18.047H70.9162V16.2474H76.9584L76.2535 17.3721L76.4549 16.9222V16.4723C76.4549 16.0224 76.4549 15.5725 76.2535 15.2351C76.0521 14.7852 75.8507 14.5603 75.5486 14.3353C75.2165 14.1052 74.8316 13.988 74.4408 13.9979C73.9373 13.9979 73.4338 14.1104 73.1317 14.4478C72.76 14.714 72.4769 15.1091 72.326 15.5725L72.1246 17.2596C72.1246 18.047 72.1246 18.6093 72.326 19.0592C72.495 19.5212 72.7907 19.9116 73.1706 20.1742C73.5506 20.4369 73.9952 20.5584 74.4408 20.5214C75.0451 20.5214 75.5486 20.5214 75.9514 20.184C76.3542 19.959 76.757 19.5091 76.9584 19.0592L79.2746 19.8465C78.7711 20.8588 78.1669 21.5336 77.2605 22.096C76.5556 22.5459 75.5486 22.7709 74.4408 22.7709ZM65.176 12.1983V22.5459H62.5577V12.1983H65.0753H65.176ZM67.7944 15.2351C67.6492 15.0559 67.4792 14.904 67.2908 14.7852H66.5859C66.2838 14.7852 65.9817 14.7852 65.7803 15.0102C65.5789 15.1226 65.3775 15.4601 65.2767 15.7975L65.0753 17.0347L64.3704 16.2474C64.3704 15.4601 64.4711 14.6727 64.7732 13.9979C65.0753 13.4355 65.4782 12.8732 65.881 12.5357C66.216 12.2344 66.6196 12.0432 67.0465 11.9836C67.4734 11.924 67.9067 11.9983 68.2979 12.1983C68.6 12.1983 68.8014 12.5357 69.0028 12.7607L67.7944 15.2351ZM54.7028 17.3721C54.7028 17.9345 54.7028 18.4969 55.0049 18.9467C55.2388 19.3994 55.577 19.7737 55.9843 20.0309C56.3917 20.288 56.8533 20.4186 57.3211 20.4089C57.7239 20.4089 58.1268 20.4089 58.5296 20.184C58.8872 20.0501 59.2262 19.8608 59.5366 19.6216L60.2415 18.7218V21.8711C59.9394 22.2085 59.5366 22.4334 58.9324 22.6584C58.3743 22.8244 57.7978 22.9001 57.2204 22.8833C56.2134 22.8833 55.307 22.6584 54.5014 22.2085C53.6958 21.7586 53.0915 21.0838 52.6887 20.2964C52.1852 19.5091 51.9838 18.6093 51.9838 17.4846C51.9838 16.3599 52.1852 15.4601 52.6887 14.6727C53.0915 13.8854 53.6958 13.2106 54.5014 12.7607C55.307 12.3108 56.2134 12.0858 57.2204 12.0858C57.8246 12.0858 58.4289 12.1983 58.9324 12.4233C59.5366 12.5357 59.9394 12.7607 60.2415 13.0981V16.1349L59.5366 15.2351C58.8991 14.7004 58.1181 14.4228 57.3211 14.4478C56.6176 14.4769 55.9516 14.8097 55.4633 15.3761C54.9749 15.9424 54.7023 16.6983 54.7028 17.4846V17.3721ZM42.0141 17.3721L43.0211 18.8343L44.2296 19.8465C44.6324 20.0715 45.1359 20.184 45.6394 20.184C46.143 20.184 46.6465 19.959 47.0493 19.7341C47.3514 19.3966 47.5528 18.9467 47.5528 18.3844C47.5528 17.822 47.4521 17.4846 47.2507 17.1472L46.2437 16.3599C45.3396 15.8218 44.3963 15.3703 43.4239 15.0102C43.0211 14.7852 42.6183 14.5603 42.2155 14.1104C41.8127 13.773 41.5106 13.3231 41.2085 12.7607C41.007 12.3108 41.007 11.7484 41.007 10.8486C41.007 9.94885 41.2085 9.16153 41.6113 8.59916C42.0141 7.92432 42.6183 7.47442 43.2225 7.02453C43.9275 6.68711 44.7331 6.46216 45.6394 6.46216C46.6822 6.41316 47.7149 6.70667 48.6098 7.30639C49.5048 7.90611 50.2227 8.78571 50.6746 9.83637L48.157 11.411C47.8244 10.6277 47.3009 9.96506 46.6465 9.49895L45.5387 9.274C44.9345 9.274 44.5317 9.38648 44.2296 9.7239C44.0282 9.94885 43.8268 10.2863 43.8268 10.7362C43.8268 11.0736 43.9275 11.411 44.2296 11.7484C44.431 11.9734 44.7331 12.3108 45.2366 12.5357C45.7401 12.8732 46.2437 13.0981 47.0493 13.3231L48.3584 13.9979L49.4662 15.1226C49.7683 15.3476 50.0704 15.7975 50.2718 16.3599C50.4732 16.9222 50.5739 17.4846 50.5739 18.1594C50.5858 18.8485 50.4558 19.5314 50.1939 20.1554C49.9319 20.7795 49.5452 21.328 49.0634 21.7586C48.5791 22.1643 48.0333 22.4691 47.4521 22.6584L45.6394 22.9958C44.4465 23.0181 43.2744 22.6455 42.2708 21.925C41.2672 21.2044 40.4771 20.1681 40 18.9467L42.0141 17.2596V17.3721Z" fill="#141A33"/>
<path d="M14 11.2C13.6323 11.2 13.2682 11.2724 12.9285 11.4131C12.5888 11.5539 12.2801 11.7601 12.0201 12.0201C11.7601 12.2801 11.5539 12.5888 11.4131 12.9285C11.2724 13.2682 11.2 13.6323 11.2 14C11.2 14.3677 11.2724 14.7318 11.4131 15.0715C11.5539 15.4112 11.7601 15.7199 12.0201 15.9799C12.2801 16.2399 12.5888 16.4461 12.9285 16.5869C13.2682 16.7276 13.6323 16.8 14 16.8C14.7426 16.8 15.4548 16.505 15.9799 15.9799C16.505 15.4548 16.8 14.7426 16.8 14C16.8 13.2574 16.505 12.5452 15.9799 12.0201C15.4548 11.495 14.7426 11.2 14 11.2ZM8.4 14C8.4 12.5148 8.99 11.0904 10.0402 10.0402C11.0904 8.99 12.5148 8.4 14 8.4C15.4852 8.4 16.9096 8.99 17.9598 10.0402C19.01 11.0904 19.6 12.5148 19.6 14C19.6 15.4852 19.01 16.9096 17.9598 17.9598C16.9096 19.01 15.4852 19.6 14 19.6C12.5148 19.6 11.0904 19.01 10.0402 17.9598C8.99 16.9096 8.4 15.4852 8.4 14ZM4.2 2.8C3.8287 2.8 3.4726 2.9475 3.21005 3.21005C2.9475 3.4726 2.8 3.8287 2.8 4.2V7C2.8 7.3713 2.6525 7.7274 2.38995 7.98995C2.1274 8.2525 1.7713 8.4 1.4 8.4C1.0287 8.4 0.672601 8.2525 0.410051 7.98995C0.1475 7.7274 0 7.3713 0 7V4.2C0 3.08609 0.442499 2.0178 1.23015 1.23015C2.0178 0.442499 3.08609 0 4.2 0L7 0C7.3713 0 7.7274 0.1475 7.98995 0.410051C8.2525 0.672601 8.4 1.0287 8.4 1.4C8.4 1.7713 8.2525 2.1274 7.98995 2.38995C7.7274 2.6525 7.3713 2.8 7 2.8H4.2ZM19.6 1.4C19.6 0.63 20.22 0 21 0H23.8C24.9139 0 25.9822 0.442499 26.7698 1.23015C27.5575 2.0178 28 3.08609 28 4.2V7C28 7.3713 27.8525 7.7274 27.5899 7.98995C27.3274 8.2525 26.9713 8.4 26.6 8.4C26.2287 8.4 25.8726 8.2525 25.6101 7.98995C25.3475 7.7274 25.2 7.3713 25.2 7V4.2C25.2 3.8287 25.0525 3.4726 24.7899 3.21005C24.5274 2.9475 24.1713 2.8 23.8 2.8H21C20.6287 2.8 20.2726 2.6525 20.01 2.38995C19.7475 2.1274 19.6 1.7713 19.6 1.4ZM26.6 19.6C27.37 19.6 28 20.23 28 21V23.8C28 24.9139 27.5575 25.9822 26.7698 26.7698C25.9822 27.5575 24.9139 28 23.8 28H21C20.6287 28 20.2726 27.8525 20.01 27.5899C19.7475 27.3274 19.6 26.9713 19.6 26.6C19.6 26.2287 19.7475 25.8726 20.01 25.6101C20.2726 25.3475 20.6287 25.2 21 25.2H23.8C24.1713 25.2 24.5274 25.0525 24.7899 24.7899C25.0525 24.5274 25.2 24.1713 25.2 23.8V21C25.2 20.23 25.82 19.6 26.6 19.6ZM1.4 19.6C2.17 19.6 2.8 20.23 2.8 21V23.8C2.8 24.1713 2.9475 24.5274 3.21005 24.7899C3.4726 25.0525 3.8287 25.2 4.2 25.2H7C7.3713 25.2 7.7274 25.3475 7.98995 25.6101C8.2525 25.8726 8.4 26.2287 8.4 26.6C8.4 26.9713 8.2525 27.3274 7.98995 27.5899C7.7274 27.8525 7.3713 28 7 28H4.2C3.08609 28 2.0178 27.5575 1.23015 26.7698C0.442499 25.9822 0 24.9139 0 23.8L0 21C0 20.23 0.63 19.6 1.4 19.6Z" fill="#5048E5"/>
</svg>
